<svg width="18" height="20" viewBox="0 0 18 20" fill="none" xmlns="http://www.w3.org/2000/svg">
<path d="M8.75 1.25C9.5788 1.25 10.3737 1.57924 10.9597 2.16529C11.5458 2.75134 11.875 3.5462 11.875 4.375V5H5.625V4.375C5.625 3.5462 5.95424 2.75134 6.54029 2.16529C7.12634 1.57924 7.9212 1.25 8.75 1.25ZM13.125 5V4.375C13.125 3.21468 12.6641 2.10188 11.8436 1.28141C11.0231 0.460936 9.91032 0 8.75 0C7.58968 0 6.47688 0.460936 5.65641 1.28141C4.83594 2.10188 4.375 3.21468 4.375 4.375V5H0V17.5C0 18.163 0.263392 18.7989 0.732233 19.2678C1.20107 19.7366 1.83696 20 2.5 20H15C15.663 20 16.2989 19.7366 16.7678 19.2678C17.2366 18.7989 17.5 18.163 17.5 17.5V5H13.125ZM1.25 6.25H16.25V17.5C16.25 17.8315 16.1183 18.1495 15.8839 18.3839C15.6495 18.6183 15.3315 18.75 15 18.75H2.5C2.16848 18.75 1.85054 18.6183 1.61612 18.3839C1.3817 18.1495 1.25 17.8315 1.25 17.5V6.25Z" fill="black"/>
</svg>
