<svg width="22" height="22" viewBox="0 0 22 22" fill="none" xmlns="http://www.w3.org/2000/svg">
<path d="M6 17V16C6 14.6739 6.52678 13.4021 7.46447 12.4645C8.40215 11.5268 9.67392 11 11 11C12.3261 11 13.5979 11.5268 14.5355 12.4645C15.4732 13.4021 16 14.6739 16 16V17" stroke="black" stroke-width="1.2" stroke-linecap="round"/>
<path d="M11 11C11.7956 11 12.5587 10.6839 13.1213 10.1213C13.6839 9.55871 14 8.79565 14 8C14 7.20435 13.6839 6.44129 13.1213 5.87868C12.5587 5.31607 11.7956 5 11 5C10.2044 5 9.44129 5.31607 8.87868 5.87868C8.31607 6.44129 8 7.20435 8 8C8 8.79565 8.31607 9.55871 8.87868 10.1213C9.44129 10.6839 10.2044 11 11 11V11Z" stroke="black" stroke-width="1.2" stroke-linecap="round" stroke-linejoin="round"/>
<path d="M11 21C16.5228 21 21 16.5228 21 11C21 5.47715 16.5228 1 11 1C5.47715 1 1 5.47715 1 11C1 16.5228 5.47715 21 11 21Z" stroke="black" stroke-width="1.2"/>
</svg>
